<svg xmlns="http://www.w3.org/2000/svg" width="54" height="54" viewBox="0 0 54 54"><defs><clipPath id="rgn2a"><path fill="#fff" d="M27 0c14.912 0 27 12.088 27 27 0 14.911-12.088 27-27 27S0 41.911 0 27C0 12.088 12.088 0 27 0z"/></clipPath></defs><g><g><path fill="#222" d="M27 0c14.912 0 27 12.088 27 27 0 14.911-12.088 27-27 27S0 41.911 0 27C0 12.088 12.088 0 27 0z"/><path fill="none" stroke="#17bebb" stroke-miterlimit="20" stroke-width="2" d="M27 0v0c14.912 0 27 12.088 27 27v0c0 14.911-12.088 27-27 27v0C12.088 54 0 41.911 0 27v0C0 12.088 12.088 0 27 0z" clip-path="url(&quot;#rgn2a&quot;)"/></g><g><path fill="#17bebb" d="M35.797 22.744c-.258 1.18-2.727 4.658-2.727 4.658-.214.344-.3.516 0 .902.215.3.923.901 1.396 1.46.87.98 1.526 1.806 1.709 2.374.167.572-.123.86-.701.86h-2.027c-.773 0-1-.615-2.373-1.99-1.202-1.159-1.717-1.308-2.018-1.308-.408 0-.53.115-.53.694v1.817c0 .499-.16.788-1.447.788-2.147 0-4.506-1.303-6.18-3.708-2.512-3.52-3.2-6.182-3.2-6.719 0-.3.116-.573.695-.573h2.027c.517 0 .712.227.907.788.99 2.887 2.662 5.41 3.348 5.41.258 0 .377-.119.377-.773V24.44c-.076-1.374-.806-1.486-.806-1.975 0-.227.194-.466.516-.466h3.184c.43 0 .572.23.572.745v4.014c0 .43.193.58.322.58.258 0 .473-.15.945-.622 1.46-1.632 2.49-4.144 2.49-4.144.129-.3.366-.573.882-.573h2.026c.613 0 .741.316.613.745z"/></g></g></svg>